<svg width="1024" height="1024" viewBox="0 0 1024 1024" fill="none" xmlns="http://www.w3.org/2000/svg">
  <rect width="1024" height="1024" fill="#2563EB"/>
  <path d="M512 256C384 256 280 360 280 488C280 616 384 720 512 720C640 720 744 616 744 488C744 360 640 256 512 256ZM512 672C416 672 344 600 344 504C344 408 416 336 512 336C608 336 680 408 680 504C680 600 608 672 512 672Z" fill="white"/>
  <path d="M512 400C456 400 408 448 408 504C408 560 456 608 512 608C568 608 616 560 616 504C616 448 568 400 512 400Z" fill="white"/>
</svg> 